<svg width="31" height="30" viewBox="0 0 31 30" fill="none" xmlns="http://www.w3.org/2000/svg">
<path d="M21.5729 16.8712C19.6217 16.8692 17.7315 16.1909 16.2242 14.9517C14.717 13.7125 13.6859 11.9891 13.3067 10.075C12.9275 8.16098 13.2236 6.17465 14.1445 4.45438C15.0654 2.73411 16.5542 1.38629 18.3573 0.64049C20.1604 -0.10531 22.1663 -0.202962 24.0333 0.364167C25.9003 0.931296 27.513 2.12813 28.5966 3.75081C29.6803 5.3735 30.1679 7.32167 29.9764 9.26351C29.7849 11.2053 28.9261 13.0207 27.5464 14.4005C26.7626 15.1856 25.8314 15.808 24.8063 16.2321C23.7811 16.6561 22.6823 16.8733 21.5729 16.8712ZM21.5729 1.02769C20.3584 1.02803 19.1626 1.32786 18.0916 1.90064C17.0206 2.47342 16.1073 3.30147 15.4327 4.31146C14.7581 5.32144 14.3429 6.4822 14.224 7.69093C14.1051 8.89967 14.286 10.1191 14.7509 11.2412C15.2157 12.3633 15.9501 13.3534 16.8889 14.124C17.8278 14.8945 18.9422 15.4216 20.1334 15.6587C21.3246 15.8957 22.5559 15.8354 23.7182 15.483C24.8805 15.1305 25.938 14.4969 26.797 13.6383C27.8246 12.6044 28.5233 11.2895 28.8051 9.85932C29.0869 8.42912 28.9393 6.94751 28.3807 5.60106C27.8222 4.25461 26.8777 3.10352 25.6663 2.29275C24.4549 1.48198 23.0306 1.04778 21.5729 1.04481V1.02769Z" fill="#FF0037"/>
<path d="M21.5729 13.5527C21.4995 13.5593 21.4255 13.5506 21.3556 13.527C21.2857 13.5034 21.2215 13.4656 21.1671 13.4158C21.1126 13.3661 21.0692 13.3055 21.0394 13.238C21.0097 13.1706 20.9943 13.0976 20.9943 13.0239C20.9943 12.9501 21.0097 12.8772 21.0394 12.8097C21.0692 12.7422 21.1126 12.6817 21.1671 12.6319C21.2215 12.5822 21.2857 12.5443 21.3556 12.5208C21.4255 12.4972 21.4995 12.4884 21.5729 12.495C22.1066 12.495 22.635 12.3899 23.128 12.1857C23.621 11.9815 24.069 11.6822 24.4464 11.3048C24.8237 10.9275 25.123 10.4795 25.3273 9.98648C25.5315 9.49346 25.6366 8.96504 25.6366 8.43139C25.63 8.35794 25.6387 8.28392 25.6623 8.21405C25.6859 8.14417 25.7237 8.07997 25.7735 8.02554C25.8232 7.97111 25.8838 7.92763 25.9513 7.89789C26.0187 7.86814 26.0917 7.85278 26.1654 7.85278C26.2392 7.85278 26.3121 7.86814 26.3796 7.89789C26.4471 7.92763 26.5076 7.97111 26.5574 8.02554C26.6071 8.07997 26.645 8.14417 26.6685 8.21405C26.6921 8.28392 26.7009 8.35794 26.6942 8.43139C26.6942 9.79419 26.1529 11.1012 25.1892 12.0648C24.2256 13.0285 22.9186 13.5698 21.5558 13.5698L21.5729 13.5527Z" fill="#FF0037"/>
<path d="M13.4884 17.0426C13.3839 17.0434 13.2814 17.0132 13.1941 16.9557C13.1068 16.8981 13.0386 16.8159 12.9981 16.7194C12.9577 16.623 12.9469 16.5167 12.9671 16.4141C12.9873 16.3115 13.0376 16.2172 13.1116 16.1433L15.5995 13.6555C15.6983 13.5561 15.8325 13.5 15.9726 13.4996C16.1128 13.4992 16.2473 13.5545 16.3467 13.6533C16.4461 13.7521 16.5021 13.8864 16.5025 14.0265C16.5029 14.1666 16.4476 14.3012 16.3488 14.4005L13.861 16.8884C13.7619 16.9868 13.628 17.0421 13.4884 17.0426Z" fill="#FF0037"/>
<path d="M2.95036 29.9999C2.75585 30.0016 2.56295 29.9646 2.38286 29.8911C2.20276 29.8176 2.03906 29.709 1.90126 29.5717L0.428243 28.103C0.151885 27.8223 -0.00207078 27.4435 3.90189e-05 27.0496C-0.00137647 26.8551 0.0357336 26.6623 0.109228 26.4822C0.182722 26.3022 0.291146 26.1384 0.428243 26.0005L11.0263 15.4025C11.3107 15.1345 11.6867 14.9852 12.0775 14.9852C12.4683 14.9852 12.8443 15.1345 13.1288 15.4025L14.5932 16.8712C14.8712 17.1504 15.0272 17.5284 15.0272 17.9224C15.0272 18.3164 14.8712 18.6944 14.5932 18.9737L4.00374 29.5674C3.86536 29.7054 3.70105 29.8147 3.52026 29.8889C3.33948 29.9631 3.14579 30.0009 2.95036 29.9999ZM2.64634 28.8181C2.68614 28.8582 2.7335 28.8901 2.78569 28.9118C2.83787 28.9335 2.89383 28.9447 2.95036 28.9447C3.00689 28.9447 3.06286 28.9335 3.11504 28.9118C3.16722 28.8901 3.21458 28.8582 3.25439 28.8181L13.8439 18.2286C13.884 18.1888 13.9159 18.1414 13.9376 18.0893C13.9593 18.0371 13.9705 17.9811 13.9705 17.9246C13.9705 17.868 13.9593 17.8121 13.9376 17.7599C13.9159 17.7077 13.884 17.6604 13.8439 17.6205L12.3794 16.1561C12.3396 16.116 12.2922 16.0841 12.2401 16.0624C12.1879 16.0406 12.1319 16.0294 12.0754 16.0294C12.0189 16.0294 11.9629 16.0406 11.9107 16.0624C11.8585 16.0841 11.8112 16.116 11.7714 16.1561L1.18188 26.7456C1.14175 26.7854 1.10989 26.8327 1.08815 26.8849C1.06641 26.9371 1.05522 26.9931 1.05522 27.0496C1.05522 27.1061 1.06641 27.1621 1.08815 27.2143C1.10989 27.2664 1.14175 27.3138 1.18188 27.3536L2.64634 28.8181Z" fill="#FF0037"/>
</svg>
