<svg width="24" height="21" viewBox="0 0 24 21" fill="none" xmlns="http://www.w3.org/2000/svg">
<path d="M8.82998 12.5639C7.68825 12.5649 6.56788 12.2544 5.58958 11.6658C4.61128 11.0771 3.81214 10.2327 3.27827 9.22351C3.25445 9.15653 3.25538 9.08323 3.28088 9.01688C3.30639 8.95053 3.35479 8.89548 3.41735 8.86171C3.4799 8.82793 3.55247 8.81764 3.62194 8.83271C3.69142 8.84777 3.75321 8.88719 3.79615 8.94385C4.45642 10.1854 5.55668 11.1355 6.88118 11.6078C8.20568 12.0802 9.65885 12.0407 10.9557 11.4971C12.2526 10.9535 13.2996 9.945 13.8915 8.66941C14.4833 7.39382 14.5773 5.94315 14.1549 4.60187C13.7326 3.2606 12.8244 2.12549 11.6085 1.41914C10.3925 0.712795 8.95659 0.486172 7.58222 0.783714C6.20786 1.08126 4.99423 1.8815 4.17933 3.02751C3.36443 4.17352 3.00706 5.58262 3.17728 6.97848C3.18234 7.01729 3.17964 7.05672 3.16932 7.09448C3.15901 7.13223 3.14128 7.16756 3.11719 7.1984C3.09309 7.22925 3.0631 7.25499 3.02896 7.27414C2.99483 7.29328 2.95722 7.30545 2.91834 7.30993C2.83978 7.31947 2.76062 7.29763 2.69807 7.24914C2.63553 7.20066 2.59464 7.12944 2.5843 7.05098C2.55506 6.79307 2.54036 6.53372 2.54028 6.27416C2.54182 5.03237 2.91136 3.8189 3.60222 2.78703C4.29307 1.75517 5.27425 0.951201 6.42181 0.4767C7.56936 0.00219884 8.83181 -0.121549 10.0497 0.121088C11.2675 0.363725 12.3861 0.961862 13.2642 1.83994C14.1423 2.71801 14.7404 3.83663 14.983 5.05448C15.2257 6.27233 15.1019 7.53477 14.6274 8.68233C14.1529 9.82988 13.349 10.8111 12.3171 11.5019C11.2852 12.1928 10.0718 12.5623 8.82998 12.5639Z" fill="#FF0037"/>
<path d="M14.7596 12.5069C14.6812 12.5071 14.6058 12.4764 14.5499 12.4214L12.8538 10.7254C12.826 10.6977 12.804 10.6648 12.7889 10.6286C12.7739 10.5924 12.7661 10.5536 12.7661 10.5143C12.7661 10.4751 12.7739 10.4363 12.7889 10.4001C12.804 10.3639 12.826 10.331 12.8538 10.3033C12.8813 10.2756 12.9139 10.2536 12.9499 10.2386C12.9859 10.2236 13.0245 10.2158 13.0635 10.2158C13.1026 10.2158 13.1412 10.2236 13.1772 10.2386C13.2132 10.2536 13.2458 10.2756 13.2733 10.3033L14.9694 11.9994C15.0144 12.0403 15.0458 12.0941 15.0593 12.1535C15.0728 12.2129 15.0678 12.275 15.045 12.3314C15.0221 12.3878 14.9825 12.4359 14.9315 12.4691C14.8805 12.5024 14.8205 12.5192 14.7596 12.5172V12.5069Z" fill="#FF0037"/>
<path d="M6.90857 10.6711C6.84177 10.6708 6.77699 10.6482 6.72447 10.607C6.67194 10.5657 6.63467 10.5081 6.61855 10.4433L5.29795 5.00549L4.44603 7.13658C4.4232 7.19139 4.38476 7.23828 4.3355 7.27142C4.28625 7.30457 4.22833 7.32251 4.16896 7.32302H0.297783C0.218806 7.32302 0.143064 7.29165 0.0872186 7.2358C0.0313735 7.17996 0 7.10421 0 7.02524C0 6.94626 0.0313735 6.87052 0.0872186 6.81467C0.143064 6.75883 0.218806 6.72745 0.297783 6.72745H3.96699L5.0908 3.92053C5.11441 3.86242 5.15578 3.81325 5.20898 3.78004C5.26219 3.74683 5.32453 3.73126 5.3871 3.73557C5.44968 3.73987 5.5093 3.76383 5.55746 3.80402C5.60561 3.8442 5.63985 3.89857 5.65529 3.95937L6.89044 9.04498L8.36641 2.14418C8.38094 2.07457 8.4199 2.01245 8.47625 1.96906C8.5326 1.92567 8.60262 1.90389 8.67363 1.90764C8.74465 1.9114 8.81198 1.94044 8.86344 1.98953C8.91491 2.03861 8.9471 2.1045 8.95421 2.17526L9.50834 7.35409L10.3836 5.24113C10.4047 5.18899 10.4403 5.14399 10.4862 5.11142C10.5321 5.07884 10.5863 5.06006 10.6425 5.05728C10.6969 5.05169 10.7518 5.06161 10.8009 5.0859C10.8499 5.11018 10.891 5.14784 10.9196 5.19452L11.9553 6.81549L13.2708 4.6352C13.291 4.6012 13.3177 4.57151 13.3494 4.54784C13.3811 4.52417 13.4172 4.50697 13.4556 4.49723C13.4939 4.48749 13.5338 4.4854 13.573 4.49108C13.6121 4.49676 13.6498 4.5101 13.6838 4.53033C13.7178 4.55057 13.7475 4.5773 13.7711 4.609C13.7948 4.64071 13.812 4.67677 13.8218 4.71512C13.8315 4.75347 13.8336 4.79337 13.8279 4.83253C13.8222 4.87168 13.8089 4.90934 13.7887 4.94335L12.235 7.53276C12.208 7.57698 12.1699 7.61338 12.1244 7.63836C12.079 7.66334 12.0279 7.67603 11.9761 7.67518C11.9249 7.67584 11.8743 7.66361 11.8291 7.63963C11.7838 7.61565 11.7453 7.58068 11.7171 7.53794L10.728 5.98429L9.61192 8.66693C9.58629 8.72727 9.54147 8.77747 9.4844 8.80974C9.42733 8.84201 9.3612 8.85454 9.29628 8.84539C9.23136 8.83625 9.17127 8.80593 9.12534 8.75915C9.07941 8.71237 9.0502 8.65173 9.04225 8.58666L8.56062 4.07848L7.19858 10.4355C7.18449 10.5016 7.14837 10.5608 7.09614 10.6037C7.04392 10.6465 6.97869 10.6703 6.91116 10.6711H6.90857Z" fill="#FF0037"/>
<path d="M23.1105 18.7911C23.1116 19.0285 23.0185 19.2567 22.8515 19.4255L21.9634 20.3137C21.88 20.3966 21.781 20.4622 21.6721 20.5066C21.5632 20.551 21.4466 20.5735 21.329 20.5726C21.0908 20.5739 20.8617 20.4808 20.692 20.3137L14.2857 13.9075C14.1225 13.7361 14.0315 13.5085 14.0315 13.2718C14.0315 13.0351 14.1225 12.8075 14.2857 12.6361L15.1713 11.7505C15.3402 11.5824 15.5688 11.488 15.807 11.488C16.0453 11.488 16.2739 11.5824 16.4427 11.7505L22.849 18.1541C23.0165 18.3238 23.1105 18.5526 23.1105 18.7911ZM22.3958 18.975C22.4201 18.9509 22.4393 18.9223 22.4525 18.8907C22.4656 18.8591 22.4724 18.8253 22.4724 18.7911C22.4724 18.7569 22.4656 18.7231 22.4525 18.6915C22.4393 18.66 22.4201 18.6313 22.3958 18.6073L15.9922 12.2036C15.9681 12.1794 15.9395 12.1601 15.9079 12.147C15.8764 12.1338 15.8425 12.127 15.8083 12.127C15.7741 12.127 15.7403 12.1338 15.7087 12.147C15.6772 12.1601 15.6486 12.1794 15.6245 12.2036L14.7389 13.0892C14.7146 13.1133 14.6954 13.1419 14.6822 13.1735C14.6691 13.205 14.6623 13.2389 14.6623 13.2731C14.6623 13.3072 14.6691 13.3411 14.6822 13.3726C14.6954 13.4042 14.7146 13.4328 14.7389 13.4569L21.1425 19.8605C21.1667 19.8845 21.1954 19.9035 21.227 19.9164C21.2585 19.9293 21.2923 19.9358 21.3264 19.9356C21.3943 19.9354 21.4594 19.9084 21.5076 19.8605L22.3958 18.975Z" fill="#FF0037"/>
</svg>
