<svg width="15" height="15" viewBox="0 0 15 15" fill="none" xmlns="http://www.w3.org/2000/svg">
<path d="M7.5535 7.86595C6.81832 7.86788 6.09912 7.65193 5.48703 7.24548C4.87495 6.83902 4.39754 6.26036 4.11531 5.58283C3.83308 4.9053 3.75873 4.15939 3.90168 3.43964C4.04464 2.71989 4.39846 2.0587 4.91831 1.53986C5.43816 1.02101 6.10064 0.667878 6.82179 0.525201C7.54294 0.382525 8.2903 0.45673 8.96915 0.738414C9.648 1.0201 10.2278 1.49658 10.635 2.10748C11.0423 2.71837 11.2586 3.43618 11.2567 4.16993C11.2536 5.14923 10.8625 6.08754 10.1687 6.78001C9.47484 7.47248 8.5347 7.86287 7.5535 7.86595ZM7.5535 0.9719C6.92169 0.9719 6.30406 1.15889 5.77873 1.50923C5.25339 1.85956 4.84395 2.35751 4.60216 2.94009C4.36038 3.52268 4.29711 4.16374 4.42038 4.78221C4.54364 5.40068 4.84788 5.96878 5.29464 6.41468C5.7414 6.86057 6.31061 7.16423 6.93028 7.28725C7.54996 7.41027 8.19226 7.34713 8.77598 7.10581C9.3597 6.8645 9.85862 6.45585 10.2096 5.93153C10.5606 5.40722 10.748 4.79079 10.748 4.1602C10.747 3.31493 10.4101 2.50457 9.81122 1.90687C9.21235 1.30917 8.40042 0.972929 7.5535 0.9719Z" fill="#FF0037"/>
<path d="M13.9367 14.0909H1.1684C1.09965 14.0909 1.03372 14.0636 0.985105 14.0151C0.936491 13.9666 0.90918 13.9008 0.90918 13.8321V13.054C0.909696 11.953 1.34801 10.8973 2.12786 10.1186C2.90771 9.33987 3.96534 8.90191 5.06847 8.90088C5.13722 8.90088 5.20315 8.92814 5.25177 8.97666C5.30038 9.02518 5.32769 9.09098 5.32769 9.1596C5.32769 9.22822 5.30038 9.29402 5.25177 9.34254C5.20315 9.39106 5.13722 9.41832 5.06847 9.41832C4.10317 9.41935 3.17771 9.80253 2.49515 10.4838C1.81258 11.165 1.42866 12.0887 1.42763 13.0521V13.5734H13.6775V13.0521C13.6769 12.0889 13.2935 11.1652 12.6112 10.4839C11.9289 9.80259 11.0037 9.41935 10.0386 9.41832C9.96981 9.41832 9.90388 9.39106 9.85526 9.34254C9.80665 9.29402 9.77934 9.22822 9.77934 9.1596C9.77934 9.09098 9.80665 9.02518 9.85526 8.97666C9.90388 8.92814 9.96981 8.90088 10.0386 8.90088C11.141 8.90242 12.1979 9.34034 12.9772 10.1186C13.7566 10.8968 14.1949 11.9518 14.1959 13.0521V13.8302C14.1962 13.8643 14.1896 13.8982 14.1767 13.9298C14.1638 13.9614 14.1448 13.9902 14.1207 14.0144C14.0966 14.0386 14.0679 14.0579 14.0363 14.071C14.0048 14.0841 13.9709 14.0909 13.9367 14.0909Z" fill="#FF0037"/>
</svg>
