<svg width="13" height="18" viewBox="0 0 13 18" fill="none" xmlns="http://www.w3.org/2000/svg">
<path d="M11.4738 15.345H1.48872C1.06881 15.345 0.686467 15.1307 0.46546 14.7726C0.244453 14.4146 0.226772 13.977 0.414629 13.6013C1.31634 11.8111 1.79371 9.8066 1.79371 7.80206V7.65841C1.79371 6.38982 2.29098 5.20302 3.19711 4.31457C4.10103 3.42612 5.3011 2.95979 6.56747 2.97305C9.10242 3.01946 11.1666 5.18534 11.1666 7.80206C11.1666 9.8066 11.644 11.8111 12.5457 13.6013C12.7358 13.977 12.7159 14.4146 12.4949 14.7726C12.2739 15.1307 11.8915 15.345 11.4716 15.345H11.4738ZM6.47907 3.70901C5.43812 3.70901 4.45685 4.10903 3.71206 4.84056C2.94958 5.58978 2.52967 6.59094 2.52967 7.65841V7.80206C2.52967 9.92152 2.02577 12.041 1.07102 13.9328C0.995878 14.0809 1.00472 14.2466 1.09091 14.3859C1.1771 14.5273 1.32076 14.6069 1.48651 14.6069H11.4738C11.6396 14.6069 11.7832 14.5251 11.8694 14.3859C11.9556 14.2444 11.9623 14.0809 11.8893 13.9328C10.9346 12.041 10.4307 9.91931 10.4307 7.80206C10.4307 5.68481 8.69135 3.74879 6.55642 3.71122C6.53211 3.71122 6.5078 3.71122 6.48128 3.71122L6.47907 3.70901Z" fill="white"/>
<path d="M6.48189 17.4953C5.37023 17.4953 4.46631 16.5913 4.46631 15.4797V14.9758C4.46631 14.7724 4.63206 14.6067 4.83539 14.6067C5.03872 14.6067 5.20447 14.7724 5.20447 14.9758V15.4797C5.20447 16.1847 5.77909 16.7593 6.4841 16.7593C7.18912 16.7593 7.76374 16.1869 7.76374 15.4797V14.9758C7.76374 14.7724 7.92949 14.6067 8.13282 14.6067C8.33614 14.6067 8.5019 14.7724 8.5019 14.9758V15.4797C8.5019 16.5913 7.59798 17.4953 6.48631 17.4953H6.48189Z" fill="white"/>
<path d="M6.48151 3.70899C5.52234 3.70899 4.74219 2.92883 4.74219 1.96966C4.74219 1.01049 5.52234 0.232544 6.48151 0.232544C7.44069 0.232544 8.22084 1.0127 8.22084 1.97187C8.22084 2.93104 7.44069 3.7112 6.48151 3.7112V3.70899ZM6.48151 0.968498C5.929 0.968498 5.48035 1.41714 5.48035 1.96966C5.48035 2.52218 5.929 2.97082 6.48151 2.97082C7.03403 2.97082 7.48268 2.52218 7.48268 1.96966C7.48268 1.41714 7.03403 0.968498 6.48151 0.968498Z" fill="white"/>
</svg>
