<svg width="30" height="30" viewBox="0 0 30 30" fill="none" xmlns="http://www.w3.org/2000/svg">
<path d="M22.526 14.1771H22.3845H22.046L21.6174 12.6214C21.077 12.5316 20.5528 12.3627 20.0617 12.12L18.806 13.14L18.5274 12.9514C17.9017 12.5241 17.3489 11.9988 16.8903 11.3957L16.6803 11.1428L17.6274 9.83569C17.3608 9.35672 17.1658 8.84124 17.0488 8.30569L15.4717 7.95855L15.4288 7.60284C15.3711 6.84758 15.4347 6.08795 15.6174 5.35284L15.7031 5.02284L17.3146 4.94999C17.4179 4.6971 17.5396 4.45216 17.6788 4.21713C17.8182 3.98193 17.9743 3.75706 18.146 3.54428L17.4517 2.09571L17.7003 1.86428C18.2554 1.34989 18.8891 0.927435 19.5774 0.612855L19.886 0.471427L20.9488 1.68857C21.4752 1.53582 22.0207 1.45933 22.5688 1.46142L23.2588 0L23.5717 0.0514284C24.3183 0.165309 25.0418 0.398271 25.7145 0.741427L26.0145 0.891426L25.7274 2.48142C26.1785 2.79561 26.5801 3.17553 26.9188 3.60856L28.4874 3.23571L28.6545 3.52713C29.0341 4.18241 29.3061 4.8943 29.4602 5.6357L29.5288 5.9657L28.106 6.73284C28.1397 7.2809 28.0935 7.83095 27.9688 8.36569L29.2545 9.35998L29.1302 9.67283C28.9953 10.0324 28.8319 10.3806 28.6417 10.7143C28.4505 11.039 28.2326 11.3472 27.9902 11.6357L27.776 11.8971L26.2888 11.2628C25.8822 11.6317 25.4229 11.9379 24.926 12.1714V13.7871L24.6002 13.8857C23.9268 14.0836 23.2279 14.1818 22.526 14.1771ZM19.9545 11.0314L20.2203 11.1814C20.7741 11.4918 21.3848 11.6871 22.016 11.7557L22.3203 11.79L22.7488 13.2685C23.1826 13.2552 23.6137 13.1949 24.0345 13.0885L24.0002 11.5714L24.2831 11.4557C24.8736 11.2187 25.409 10.8628 25.856 10.41L26.0702 10.1957L27.4845 10.7957C27.6131 10.62 27.7374 10.44 27.8488 10.2514C27.9602 10.0628 28.0588 9.86997 28.1488 9.67283L26.9574 8.70426L27.0431 8.40855C27.2255 7.79915 27.2809 7.1588 27.206 6.52713L27.1674 6.22284L28.5217 5.49427C28.4098 5.07582 28.2532 4.67063 28.0545 4.2857L26.5717 4.62856L26.396 4.3757C26.0298 3.85941 25.5634 3.42215 25.0245 3.08999L24.7631 2.93142L25.0374 1.41857C24.6387 1.24016 24.2221 1.1051 23.7945 1.01571L23.1431 2.39571H22.8345C22.2005 2.35768 21.5652 2.44656 20.966 2.65714L20.6788 2.75999L19.6674 1.60285C19.2802 1.80552 18.9153 2.04828 18.5788 2.32714L19.2431 3.6857L19.0374 3.91285C18.8272 4.14932 18.6393 4.40469 18.476 4.6757C18.3149 4.94743 18.1814 5.23457 18.0774 5.53284L17.9746 5.82427L16.4403 5.89284C16.3587 6.31635 16.3228 6.74738 16.3331 7.17855L17.8331 7.50855L17.8803 7.81284C17.9825 8.43961 18.2114 9.03896 18.5531 9.57426L18.716 9.83569L17.8117 11.0785C18.0979 11.4161 18.4166 11.7247 18.7631 12L19.9545 11.0314Z" fill="#FF0037"/>
<path d="M22.5219 10.1314C21.7882 10.1167 21.0842 9.83846 20.5388 9.34749C19.9933 8.85651 19.6428 8.18562 19.5512 7.45747C19.4597 6.72932 19.6333 5.99255 20.0402 5.38184C20.4472 4.77113 21.0603 4.32728 21.7676 4.13144C22.3507 3.98249 22.9648 4.00928 23.5327 4.20845C24.1006 4.40761 24.5969 4.77025 24.9592 5.25076C25.3216 5.73126 25.5337 6.30818 25.569 6.90895C25.6043 7.50972 25.4612 8.10751 25.1576 8.62714C24.9546 8.97339 24.6849 9.27592 24.3642 9.51722C24.0434 9.75851 23.678 9.93377 23.289 10.0328C23.0384 10.0975 22.7807 10.1306 22.5219 10.1314ZM22.5219 4.92429C22.3411 4.92385 22.161 4.9469 21.9862 4.99286C21.7125 5.06602 21.4561 5.19269 21.2318 5.36556C21.0074 5.53844 20.8195 5.75407 20.679 6C20.502 6.30337 20.4023 6.6456 20.3886 6.99656C20.375 7.34753 20.4478 7.69648 20.6007 8.01269C20.7535 8.32891 20.9818 8.60269 21.2654 8.80995C21.5489 9.01721 21.8791 9.15159 22.2268 9.20126C22.5745 9.25094 22.9291 9.21438 23.2594 9.0948C23.5896 8.97523 23.8854 8.77632 24.1207 8.51556C24.356 8.2548 24.5236 7.9402 24.6088 7.59944C24.6939 7.25869 24.694 6.90223 24.609 6.56143C24.5394 6.28803 24.4165 6.03107 24.2474 5.80528C24.0782 5.5795 23.8661 5.38934 23.6233 5.24572C23.2947 5.04194 22.9171 4.93087 22.5305 4.92429H22.5219Z" fill="#FF0037"/>
<path d="M10.05 29.9999C9.67913 30.0014 9.3085 29.9814 8.93998 29.9399L8.61855 29.9056L8.08284 27.4585C7.50464 27.276 6.94952 27.0272 6.42855 26.7171L4.12713 28.0628L3.88285 27.8571C3.49754 27.5573 3.13511 27.2293 2.79856 26.8756L2.57142 26.6614L3.81428 24.2785C3.46698 23.7612 3.17943 23.2063 2.95714 22.6242L0.248571 22.1699L0.175714 21.7757C0.175714 21.7242 0.175714 21.6728 0.141428 21.6171C0.0742926 21.2427 0.0270834 20.865 0 20.4857L0 20.1642L2.51999 19.1271C2.58033 18.4714 2.72435 17.8262 2.94856 17.2071L1.2 15.1671L1.36285 14.8885C1.59489 14.4888 1.85557 14.1064 2.14285 13.7443L2.33571 13.4957L4.80856 14.28C5.3033 13.7777 5.86417 13.3451 6.4757 12.9943V10.5343L6.78427 10.4271C7.24489 10.2698 7.71607 10.1452 8.19426 10.0543L8.49426 9.99426L9.72855 12C10.4634 11.9346 11.2038 11.9751 11.9271 12.12L13.32 10.4314L13.62 10.5471C14.1121 10.7298 14.588 10.9535 15.0428 11.2157L15.3085 11.3657L15.0257 13.4657C15.6307 13.8977 16.1705 14.4144 16.6285 15L18.6042 14.6357L18.7628 14.91C19.0429 15.3929 19.2809 15.8991 19.4742 16.4228L19.5857 16.71L18.1071 18.0428C18.1471 18.2142 18.1814 18.3857 18.21 18.5571C18.2993 19.0908 18.3352 19.632 18.3171 20.1728L20.0314 21.1499L19.9842 21.4585C19.9031 22.0298 19.7741 22.5932 19.5985 23.1428L19.4999 23.4385L17.4428 23.5242C17.1258 24.1154 16.7371 24.6652 16.2857 25.1614L17.0357 27.1671L16.8085 27.3728C16.3963 27.7522 15.9517 28.0949 15.48 28.3971L15.2142 28.5728L13.4228 27.1928C12.8717 27.4208 12.2966 27.5861 11.7085 27.6856H11.6143L10.8128 29.9528H10.5085L10.05 29.9999ZM9.35998 29.0614C9.62997 29.0614 9.90426 29.0914 10.1743 29.0871L10.9585 26.8756L11.2371 26.8414C11.3485 26.8414 11.46 26.8156 11.5714 26.7942C12.1736 26.6922 12.76 26.5121 13.3157 26.2585L13.5642 26.1471L15.2785 27.4628C15.5288 27.2908 15.7692 27.1047 15.9985 26.9056L15.2571 24.9514L15.4542 24.7457C15.9803 24.1942 16.4144 23.5619 16.74 22.8728L16.8557 22.6242L18.8571 22.5428C18.9428 22.2428 19.0157 21.9385 19.0757 21.6299L17.4 20.6785L17.4214 20.3957C17.4608 19.8316 17.4335 19.2648 17.34 18.7071C17.2941 18.4684 17.2354 18.2324 17.1642 18L17.0914 17.7342L18.5185 16.4485C18.4039 16.1707 18.2751 15.899 18.1328 15.6342L16.2385 15.9857L16.0714 15.7542C15.5849 15.0818 14.9827 14.5013 14.2928 14.04L14.0571 13.8814L14.3314 11.8371C14.0957 11.7128 13.8514 11.5971 13.5985 11.4943L12.27 13.1057L12 13.0457C11.1984 12.8573 10.3697 12.8137 9.55283 12.9171L9.26569 12.9514L8.03569 11.0143C7.80855 11.0657 7.58569 11.1257 7.36284 11.1943L7.38427 13.5428L7.13998 13.6671C6.43933 14.0368 5.80615 14.5222 5.26713 15.1028L5.06999 15.3128L2.66142 14.5714C2.53714 14.7385 2.42142 14.9142 2.30999 15.09L3.9857 17.0314L3.88285 17.2842C3.60584 17.9808 3.44234 18.7173 3.39856 19.4657V19.7485L0.942855 20.7557C0.942855 20.9657 0.989997 21.1842 1.02 21.3814L3.6557 21.8099L3.74142 22.0714C3.96395 22.7607 4.29214 23.4113 4.71427 23.9999L4.88142 24.2271L3.68142 26.5156C3.84856 26.6785 4.02427 26.8371 4.20856 26.9871L6.42855 25.6585L6.66427 25.8085C7.26001 26.1902 7.91028 26.4793 8.59283 26.6656L8.85855 26.7385L9.35998 29.0614Z" fill="#FF0037"/>
<path d="M10.3631 24.767C9.09648 24.7647 7.87974 24.273 6.96701 23.3948C6.05428 22.5166 5.51613 21.3197 5.46495 20.0541C5.41378 18.7885 5.85353 17.552 6.69237 16.603C7.53122 15.6539 8.70428 15.0657 9.96659 14.961C11.2289 14.8564 12.4828 15.2434 13.4665 16.0414C14.4502 16.8394 15.0875 17.9865 15.2454 19.2433C15.4034 20.5 15.0697 21.7692 14.314 22.7857C13.5584 23.8023 12.4392 24.4875 11.1902 24.6985C10.917 24.7445 10.6403 24.7675 10.3631 24.767ZM10.3674 15.8571C10.1432 15.8581 9.91958 15.8782 9.69882 15.9171C8.64971 16.0944 7.714 16.6812 7.09754 17.5484C6.48108 18.4156 6.23437 19.4922 6.41169 20.5413C6.58901 21.5905 7.17582 22.5262 8.04304 23.1426C8.91026 23.7591 9.98685 24.0058 11.036 23.8285C12.024 23.6558 12.9117 23.1197 13.5243 22.3255C14.137 21.5313 14.4302 20.5366 14.3464 19.5371C14.2626 18.5376 13.8077 17.6056 13.0714 16.9246C12.335 16.2435 11.3704 15.8627 10.3674 15.8571Z" fill="#FF0037"/>
</svg>
