<svg width="22" height="18" viewBox="0 0 22 18" fill="none" xmlns="http://www.w3.org/2000/svg">
<path d="M17.2317 13.1297H16.5149C16.3471 13.1297 16.2099 12.9925 16.2099 12.8247C16.2099 12.6569 16.3471 12.5197 16.5149 12.5197H17.2317C19.2753 12.5197 20.9398 10.8573 20.9398 8.81155C20.9398 6.99017 19.6348 5.45201 17.8352 5.15789C17.7088 5.1361 17.6086 5.03806 17.5846 4.91169C17.1641 2.58921 15.1445 0.905078 12.785 0.905078C10.8786 0.905078 9.13564 2.02928 8.3426 3.76788C8.27942 3.90514 8.12691 3.97486 7.98312 3.93564C7.69553 3.85503 7.40576 3.81363 7.12035 3.81363C5.60398 3.81363 4.29023 4.89209 3.99611 6.37795C3.96778 6.51521 3.85231 6.61543 3.71288 6.62415C2.14204 6.70258 0.911078 7.99672 0.911078 9.56756C0.911078 11.1384 2.23572 12.5197 3.86321 12.5197H5.33382C5.50158 12.5197 5.63884 12.6569 5.63884 12.8247C5.63884 12.9925 5.50158 13.1297 5.33382 13.1297H3.86321C1.9002 13.1297 0.303223 11.5306 0.303223 9.56756C0.303223 7.74835 1.66926 6.23852 3.45143 6.03372C3.88499 4.38009 5.39265 3.2036 7.12253 3.2036C7.37962 3.2036 7.64106 3.23192 7.90032 3.28639C8.83716 1.46064 10.7261 0.295044 12.7871 0.295044C15.3711 0.295044 17.5912 2.09029 18.1445 4.59578C20.1315 5.02063 21.5498 6.7614 21.5498 8.81155C21.5498 11.1929 19.613 13.1297 17.2317 13.1297Z" fill="white"/>
<path d="M10.9271 17.313C10.8486 17.313 10.7702 17.2825 10.7114 17.2237L6.72653 13.2388C6.66989 13.1822 6.63721 13.1038 6.63721 13.0231V9.28451C6.63721 9.16033 6.71128 9.04921 6.82457 9.00346C6.93787 8.95553 7.06859 8.98167 7.15574 9.06882L11.1406 13.0536C11.2604 13.1735 11.2604 13.3652 11.1406 13.485C11.0207 13.6049 10.829 13.6049 10.7092 13.485L7.24288 10.0187V12.8968L11.1384 16.7923C11.2582 16.9121 11.2582 17.1038 11.1384 17.2237C11.0796 17.2825 11.0011 17.313 10.9227 17.313H10.9271Z" fill="white"/>
<path d="M10.9269 17.3131C10.8484 17.3131 10.77 17.2826 10.7112 17.2238C10.5914 17.104 10.5914 16.9122 10.7112 16.7924L14.6067 12.8969V10.0189L11.1404 13.4852C11.0206 13.605 10.8288 13.605 10.709 13.4852C10.5892 13.3653 10.5892 13.1736 10.709 13.0538L14.6938 9.06894C14.781 8.98179 14.9117 8.95565 15.025 9.00358C15.1383 9.05151 15.2124 9.16263 15.2124 9.28463V13.0233C15.2124 13.1039 15.1797 13.1823 15.123 13.239L11.1382 17.2238C11.0794 17.2826 11.001 17.3131 10.9225 17.3131H10.9269Z" fill="white"/>
</svg>
