<svg width="164" height="46" viewBox="0 0 164 46" fill="none" xmlns="http://www.w3.org/2000/svg">
<path d="M17.2777 26.5159V39.9463H14.0281V33.2443C14.0301 32.7367 13.9309 32.2337 13.736 31.7644C13.5412 31.2951 13.2546 30.8687 12.8927 30.5097C12.5309 30.1508 12.1011 29.8665 11.628 29.6732C11.1548 29.4799 10.6478 29.3814 10.1362 29.3835C9.62208 29.3824 9.11296 29.4832 8.63875 29.6801C8.16841 29.8711 7.74137 30.1535 7.38278 30.5107C6.65667 31.2328 6.2489 32.2112 6.2489 33.2311C6.2489 34.251 6.65667 35.2293 7.38278 35.9515C7.73414 36.3211 8.16284 36.6098 8.63875 36.7975C9.11616 36.9846 9.62505 37.08 10.1384 37.0787C10.8186 37.051 11.4908 36.9213 12.132 36.6942V39.6782C11.3035 40.0891 10.958 40.2957 9.85927 40.2957C8.91626 40.3049 7.98188 40.117 7.11697 39.7441C6.29873 39.3914 5.56102 38.8779 4.94838 38.2345C4.32946 37.5819 3.84289 36.8172 3.51521 35.9822C2.83347 34.2135 2.83347 32.2575 3.51521 30.4888C3.84289 29.6538 4.32946 28.8891 4.94838 28.2364C5.56255 27.5908 6.30261 27.0757 7.12361 26.7224C7.98867 26.3503 8.92306 26.1631 9.86591 26.1731C10.6686 26.1591 11.4667 26.2955 12.2184 26.5752C12.8693 26.8231 13.4793 27.166 14.0281 27.5926V26.5203L17.2777 26.5159Z" fill="white"/>
<path d="M27.2745 24.6524C26.8942 24.8187 26.5463 25.05 26.2467 25.3358C25.9481 25.6249 25.7055 25.9661 25.5312 26.3422C25.3501 26.7328 25.2579 27.1582 25.261 27.5881H28.4286L28.4862 30.8051H25.2521V39.9462H22.0181V27.5881C22.0334 26.746 22.2077 25.9142 22.532 25.1358C22.859 24.3566 23.3375 23.6489 23.9403 23.0532C24.5431 22.4575 25.2584 21.9854 26.0451 21.664C26.8338 21.3433 27.6781 21.179 28.5305 21.1806V24.3909C28.098 24.3897 27.6701 24.4788 27.2745 24.6524Z" fill="white"/>
<path d="M32.582 21.1808H35.8249V24.3912H32.582V21.1808ZM32.582 39.9464V26.5424H35.8249V39.9464H32.582Z" fill="white"/>
<path d="M40.718 39.9464V21.1808H43.9587V39.9464H40.718Z" fill="white"/>
<path d="M48.4001 21.1808H51.6431V24.3912H48.4001V21.1808ZM48.4001 39.9464V26.5424H51.6431V39.9464H48.4001Z" fill="white"/>
<path d="M99.2366 26.1684C100.192 26.1611 101.139 26.3481 102.019 26.7178C103.732 27.4327 105.095 28.7847 105.815 30.4841C106.181 31.3544 106.369 32.288 106.369 33.2308C106.369 34.1737 106.181 35.1072 105.815 35.9775C105.095 37.677 103.732 39.0289 102.019 39.7439C101.137 40.1079 100.191 40.2953 99.2355 40.2953C98.2802 40.2953 97.3343 40.1079 96.4522 39.7439C94.7391 39.0289 93.3763 37.677 92.6556 35.9775C92.29 35.1072 92.1018 34.1737 92.1018 33.2308C92.1018 32.288 92.29 31.3544 92.6556 30.4841C93.3763 28.7847 94.7391 27.4327 96.4522 26.7178C97.3328 26.3479 98.2804 26.1609 99.2366 26.1684V26.1684ZM99.2366 29.3832C98.4687 29.3813 97.7176 29.6055 97.0782 30.0273C96.4387 30.4491 95.9398 31.0496 95.6446 31.7527C95.3493 32.4559 95.271 33.2302 95.4195 33.9775C95.568 34.7249 95.9367 35.4117 96.4788 35.9512C96.8306 36.3203 97.2592 36.609 97.7348 36.7972C98.213 36.9843 98.7226 37.0797 99.2366 37.0784C99.745 37.0805 100.249 36.985 100.721 36.7972C101.198 36.6034 101.63 36.3156 101.992 35.9512C102.718 35.2291 103.126 34.2508 103.126 33.2308C103.126 32.2109 102.718 31.2326 101.992 30.5105C101.631 30.1512 101.201 29.8666 100.728 29.6731C100.255 29.4796 99.7482 29.3811 99.2366 29.3832V29.3832Z" fill="white"/>
<path d="M115.185 31.6422C115.553 31.7484 115.915 31.8738 116.269 32.018C116.813 32.2365 117.332 32.5105 117.819 32.8354C118.354 33.1876 118.824 33.6275 119.21 34.1362C119.612 34.6687 119.822 35.3194 119.806 35.9842C119.813 36.5708 119.707 37.1534 119.494 37.7004C119.288 38.2261 118.97 38.7016 118.562 39.0947C118.154 39.4879 117.666 39.7895 117.13 39.9791C116.506 40.2026 115.847 40.3121 115.183 40.3021C114.132 40.3109 113.089 40.1099 112.118 39.711C111.268 39.3807 110.493 38.8888 109.834 38.2629L112.084 36.037C112.468 36.532 112.989 36.9048 113.584 37.1093C114.013 37.2523 114.461 37.3337 114.913 37.351C115.469 37.351 115.885 37.2433 116.156 37.028C116.28 36.9394 116.382 36.8227 116.453 36.6874C116.523 36.5522 116.56 36.4024 116.561 36.2501C116.56 36.1425 116.535 36.0364 116.488 35.9393C116.442 35.8421 116.374 35.7563 116.291 35.6876C116.101 35.5217 115.887 35.386 115.655 35.2855C115.415 35.18 115.167 35.0948 114.913 35.0306C114.66 34.9691 114.452 34.9119 114.291 34.857C114.069 34.7867 113.71 34.6614 113.196 34.4812C112.645 34.2844 112.118 34.024 111.628 33.7056C111.092 33.3607 110.621 32.9248 110.237 32.4179C109.835 31.876 109.627 31.2161 109.648 30.5435C109.631 29.8751 109.765 29.2114 110.04 28.601C110.281 28.0793 110.636 27.6171 111.079 27.2474C111.515 26.887 112.021 26.6179 112.565 26.4564C113.125 26.2855 113.709 26.1996 114.295 26.2015C115.086 26.1836 115.875 26.2919 116.632 26.5223C117.183 26.6981 117.713 26.9316 118.214 27.2189C118.656 27.5021 119.056 27.8453 119.403 28.2385L117.133 30.4908C116.819 30.0659 116.412 29.7173 115.943 29.4712C115.516 29.2579 115.044 29.1479 114.565 29.1504C114.176 29.1521 113.792 29.2439 113.444 29.4185C113.275 29.4882 113.131 29.6077 113.032 29.7609C112.933 29.9141 112.884 30.0936 112.891 30.2754C112.889 30.3788 112.91 30.4812 112.952 30.5759C112.993 30.6706 113.055 30.7555 113.132 30.8248C113.307 30.9838 113.509 31.111 113.728 31.2005C113.969 31.3016 114.217 31.3868 114.47 31.4554C114.742 31.5192 114.964 31.5829 115.185 31.6422Z" fill="white"/>
<path d="M69.7137 26.5575V39.9923H66.4707V33.2903C66.4731 32.7829 66.3741 32.2801 66.1794 31.8109C65.9848 31.3417 65.6984 30.9154 65.3367 30.5567C64.975 30.1979 64.5453 29.9138 64.0723 29.7207C63.5994 29.5276 63.0925 29.4294 62.581 29.4317C61.5498 29.4266 60.5585 29.8263 59.8232 30.5436C59.0971 31.2657 58.6894 32.244 58.6894 33.2639C58.6894 34.2839 59.0971 35.2622 59.8232 35.9843C60.1754 36.3539 60.6048 36.6427 61.0814 36.8303C61.5588 37.0176 62.0677 37.1131 62.581 37.1116C63.2614 37.0842 63.9335 36.9545 64.5746 36.727V39.7111C63.744 40.122 63.4006 40.3285 62.3019 40.3285C61.3592 40.3377 60.425 40.1505 59.5596 39.7792C58.7382 39.4246 57.9976 38.9088 57.3822 38.263C56.764 37.6111 56.2782 36.8471 55.9512 36.0129C55.2666 34.2447 55.2666 32.2876 55.9512 30.5194C56.2781 29.6845 56.7639 28.9198 57.3822 28.2671C58.0146 27.6053 58.778 27.0804 59.6247 26.7253C60.4713 26.3703 61.3828 26.1927 62.3019 26.2037C63.1039 26.1897 63.9013 26.3262 64.6522 26.6059C65.3027 26.8546 65.9125 27.1975 66.4619 27.6233V26.5509L69.7137 26.5575Z" fill="white"/>
<path d="M87.8954 21.1521V39.9925H84.6525V33.2905C84.6542 32.7831 84.5547 32.2803 84.3598 31.8113C84.1648 31.3422 83.8781 30.916 83.5163 30.5573C83.1546 30.1987 82.7248 29.9145 82.2518 29.7214C81.7789 29.5282 81.272 29.4298 80.7605 29.4318C80.2458 29.4294 79.7359 29.5296 79.2609 29.7263C78.5502 30.0165 77.9428 30.51 77.5159 31.144C77.0891 31.778 76.8622 32.5237 76.8642 33.2861C76.8567 33.7904 76.9537 34.2909 77.1492 34.7566C77.3446 35.2223 77.6344 35.6432 78.0005 35.9932C78.3514 36.3633 78.7803 36.6522 79.2565 36.8392C79.7338 37.0265 80.2428 37.122 80.7561 37.1205C81.4364 37.0927 82.1085 36.9631 82.7497 36.7359V39.72C81.9213 40.1309 81.5757 40.3375 80.477 40.3375C79.5343 40.3464 78.6001 40.1592 77.7347 39.7881C76.9141 39.4332 76.1742 38.9175 75.5595 38.2719C74.9406 37.6201 74.454 36.8562 74.1263 36.0218C73.4416 34.2536 73.4416 32.2965 74.1263 30.5283C74.454 29.6933 74.9405 28.9287 75.5595 28.276C76.1744 27.6312 76.9143 27.1163 77.7347 26.762C78.5998 26.3899 79.5341 26.2027 80.477 26.2127C81.2847 26.1957 82.0884 26.3314 82.8449 26.6126C83.4961 26.8614 84.1067 27.2042 84.6569 27.63V21.1521H87.8954Z" fill="white"/>
<path d="M148.175 45.9999C145.168 45.9999 142.228 45.1153 139.728 43.458C137.227 41.8007 135.279 39.4451 134.128 36.689C132.977 33.933 132.676 30.9004 133.263 27.9746C133.849 25.0488 135.297 22.3613 137.424 20.2519C139.55 18.1425 142.259 16.706 145.209 16.124C148.158 15.5421 151.215 15.8408 153.993 16.9823C156.772 18.1239 159.146 20.0571 160.817 22.5375C162.488 25.0179 163.379 27.934 163.379 30.9171C163.375 34.9159 161.771 38.7496 158.921 41.5771C156.071 44.4047 152.206 45.9953 148.175 45.9999V45.9999ZM148.175 17.2823C145.459 17.2845 142.805 18.0854 140.548 19.5837C138.291 21.082 136.532 23.2105 135.495 25.7001C134.457 28.1897 134.186 30.9287 134.718 33.5707C135.249 36.2127 136.558 38.6392 138.479 40.5434C140.4 42.4477 142.847 43.7441 145.511 44.2689C148.175 44.7937 150.935 44.5233 153.444 43.4918C155.953 42.4603 158.097 40.7141 159.606 38.4739C161.115 36.2337 161.92 33.6002 161.92 30.9061C161.912 27.2933 160.461 23.8307 157.885 21.2771C155.309 18.7235 151.817 17.287 148.175 17.2823V17.2823Z" fill="white"/>
<path d="M153.925 30.0272L143.948 24.9007V23.4131L154.012 28.5791L153.925 30.0272Z" fill="white"/>
<path d="M148.233 31.7698L143.949 33.9452L143.933 35.5778L148.233 33.297V31.7698Z" fill="white"/>
<path d="M143.904 26.7422V28.2298L152.774 32.7872L143.933 37.3182V38.808L153.968 33.7672V31.9082L143.904 26.7422Z" fill="white"/>
<path d="M12.0036 9.15869C11.755 9.18098 11.5102 9.23413 11.2749 9.31691C11.0732 9.38582 10.8899 9.49927 10.7388 9.64871C10.6691 9.72067 10.6148 9.80581 10.579 9.89906C10.5432 9.99231 10.5268 10.0918 10.5306 10.1915C10.5182 10.3258 10.5415 10.4611 10.5983 10.5837C10.655 10.7063 10.7432 10.812 10.854 10.8902C11.1219 11.0464 11.4295 11.1227 11.74 11.11C11.9985 11.117 12.2552 11.066 12.491 10.9605C12.685 10.8725 12.8562 10.7418 12.9916 10.5782C13.1174 10.4222 13.2108 10.2429 13.2662 10.0508C13.3203 9.86436 13.3479 9.67133 13.3482 9.47731V9.11694H12.7833C12.5229 9.1169 12.2626 9.13084 12.0036 9.15869V9.15869Z" fill="white"/>
<path d="M21.1985 7.60949C21.0338 7.43665 20.8347 7.29971 20.6137 7.20737C20.1159 7.01047 19.5609 7.01047 19.0631 7.20737C18.8422 7.29971 18.643 7.43665 18.4783 7.60949C18.3141 7.78744 18.1882 7.99681 18.1084 8.22476C17.9342 8.73421 17.9342 9.28643 18.1084 9.79589C18.1882 10.0238 18.3141 10.2332 18.4783 10.4112C18.643 10.584 18.8422 10.7209 19.0631 10.8133C19.5609 11.0102 20.1159 11.0102 20.6137 10.8133C20.8347 10.7209 21.0338 10.584 21.1985 10.4112C21.362 10.2327 21.4878 10.0234 21.5684 9.79589C21.7426 9.28643 21.7426 8.73421 21.5684 8.22476C21.4878 7.9972 21.362 7.78798 21.1985 7.60949V7.60949Z" fill="white"/>
<path d="M47.9725 0H7.47376C5.49178 0.000582471 3.59114 0.781883 2.18966 2.17215C0.788188 3.56241 0.000587168 5.44785 0 7.41398H0C0.000587168 9.38011 0.788188 11.2655 2.18966 12.6558C3.59114 14.0461 5.49178 14.8274 7.47376 14.828H47.9725C49.9545 14.8274 51.8551 14.0461 53.2566 12.6558C54.6581 11.2655 55.4457 9.38011 55.4463 7.41398V7.41398C55.4457 5.44785 54.6581 3.56241 53.2566 2.17215C51.8551 0.781883 49.9545 0.000582471 47.9725 0V0ZM13.4501 11.8131C13.428 11.5275 13.4147 11.244 13.4147 10.9606H13.3925C13.1894 11.2919 12.895 11.5587 12.5441 11.7296C12.1876 11.8842 11.8012 11.9592 11.4122 11.9494C11.1581 11.9504 10.9052 11.9149 10.6613 11.8439C10.4344 11.7773 10.2224 11.6685 10.0366 11.5231C9.85706 11.3823 9.71234 11.2027 9.61356 10.9979C9.49799 10.7372 9.4458 10.4533 9.46119 10.1689C9.47658 9.88455 9.55912 9.60776 9.70216 9.36086C9.87115 9.11079 10.0993 8.90559 10.3667 8.76317C10.6758 8.60038 11.0094 8.48833 11.3546 8.43137C11.7541 8.36355 12.1588 8.33046 12.5641 8.33248H13.3504V8.09956C13.3501 7.95364 13.3223 7.80907 13.2685 7.67327C13.2109 7.53021 13.1259 7.39961 13.0182 7.28873C12.899 7.17082 12.7564 7.07878 12.5995 7.01845C12.4095 6.9463 12.207 6.91195 12.0037 6.91737C11.8217 6.91455 11.6401 6.93448 11.4632 6.9767C11.3172 7.01274 11.1748 7.06202 11.0379 7.12392C10.9161 7.18129 10.8003 7.25048 10.6923 7.33048L10.3955 7.55021L9.75089 6.891C10.0549 6.61597 10.4121 6.40515 10.8009 6.27134C11.1834 6.13579 11.5864 6.06593 11.9926 6.06478C12.3546 6.05689 12.7154 6.10887 13.0603 6.2186C13.3301 6.30466 13.579 6.44533 13.7912 6.63171C13.977 6.79575 14.1219 7.00036 14.2143 7.2294C14.3063 7.45253 14.353 7.69149 14.3517 7.93256V10.7892C14.3517 10.9869 14.3517 11.1671 14.365 11.3319C14.3782 11.4967 14.3849 11.6549 14.4004 11.8065L13.4501 11.8131ZM22.7713 11.8131H21.708V11.0089H21.6837C21.4669 11.3157 21.1686 11.5568 20.822 11.7055C20.4753 11.8669 20.0974 11.9516 19.7144 11.9538C19.3085 11.9611 18.9052 11.8863 18.5294 11.734C18.1857 11.5918 17.8768 11.3783 17.6234 11.1078C17.3714 10.8367 17.175 10.5195 17.0452 10.1739C16.904 9.80168 16.8327 9.40697 16.8348 9.00928C16.8317 8.61209 16.9008 8.21759 17.0386 7.84466C17.1668 7.49834 17.3634 7.18086 17.6167 6.91078C17.8718 6.64379 18.1804 6.43272 18.5227 6.29111C18.8986 6.13881 19.3018 6.06405 19.7078 6.07137C20.1038 6.06905 20.4953 6.15543 20.853 6.32407C21.187 6.47378 21.4717 6.71363 21.6748 7.01625H21.708V2.87418H22.7801L22.7713 11.8131ZM34.117 11.8131H33.0449V8.69066C33.0458 8.48483 33.0317 8.27921 33.0028 8.07539C32.9808 7.89281 32.922 7.71647 32.8301 7.55681C32.7421 7.40501 32.6142 7.27972 32.4601 7.19424C32.265 7.09595 32.0474 7.04975 31.8288 7.0602C31.3127 7.0602 30.9428 7.21621 30.7213 7.53264C30.4845 7.89388 30.3676 8.31953 30.3868 8.74999V11.8131H29.3147V8.87963C29.3165 8.63508 29.3024 8.39067 29.2726 8.1479C29.2506 7.94874 29.1944 7.75477 29.1065 7.57439C29.0259 7.41627 28.9014 7.28435 28.7476 7.19424C28.5549 7.09591 28.3394 7.04968 28.123 7.0602C27.9326 7.06 27.7442 7.09813 27.5692 7.17226C27.3885 7.24786 27.2273 7.36276 27.0974 7.50846C26.9523 7.67611 26.843 7.87122 26.7762 8.08198C26.6915 8.34765 26.6511 8.62523 26.6566 8.9038V11.8131H25.5845V6.20761H26.5813V7.08657H26.6034C26.6469 6.97801 26.7099 6.87822 26.7895 6.79212C26.9008 6.66308 27.0289 6.54929 27.1705 6.45372C27.3409 6.34024 27.5256 6.24937 27.7198 6.18344C27.9434 6.10643 28.1787 6.06852 28.4154 6.07137C28.7865 6.05809 29.154 6.14789 29.4764 6.33067C29.7787 6.5219 30.0223 6.79171 30.1808 7.11074C30.3502 6.7771 30.6205 6.50434 30.9539 6.33067C31.2655 6.16303 31.6139 6.07399 31.9684 6.07137C32.3382 6.06029 32.7054 6.13556 33.0405 6.29111C33.3069 6.41914 33.5357 6.61283 33.705 6.85364C33.8671 7.09342 33.9786 7.36325 34.0329 7.6469C34.093 7.94866 34.1227 8.25561 34.1215 8.56321L34.117 11.8131ZM38.0865 11.8131H37.0144V6.20761H38.0865V11.8131ZM38.0998 4.74855C38.0285 4.82676 37.9419 4.88977 37.8453 4.93376C37.7487 4.97775 37.6441 5.0018 37.5379 5.00445C37.4316 5.0071 37.3259 4.98829 37.2272 4.94917C37.1285 4.91004 37.0389 4.85142 36.9637 4.77686C36.8885 4.70231 36.8295 4.61337 36.79 4.51545C36.7506 4.41754 36.7316 4.31269 36.7343 4.20729C36.737 4.10188 36.7612 3.99811 36.8055 3.90228C36.8499 3.80646 36.9134 3.72058 36.9923 3.64986C37.0635 3.57165 37.1501 3.50863 37.2467 3.46464C37.3433 3.42065 37.4479 3.3966 37.5542 3.39395C37.6604 3.3913 37.7661 3.41011 37.8648 3.44924C37.9635 3.48836 38.0532 3.54698 38.1283 3.62154C38.2035 3.6961 38.2626 3.78504 38.302 3.88295C38.3415 3.98087 38.3604 4.08571 38.3578 4.19112C38.3551 4.29653 38.3309 4.4003 38.2865 4.49612C38.2422 4.59195 38.1786 4.67783 38.0998 4.74855V4.74855ZM45.9834 11.8131H44.9113V8.50168C44.916 8.27721 44.8792 8.05377 44.8027 7.84247C44.741 7.67701 44.6435 7.52699 44.517 7.40299C44.4016 7.2898 44.2613 7.20479 44.1072 7.15469C43.9516 7.10266 43.7884 7.07666 43.6243 7.07778C43.4128 7.07595 43.2028 7.11167 43.004 7.18325C42.8127 7.25437 42.6411 7.36961 42.5034 7.51945C42.3508 7.68892 42.2367 7.88902 42.1689 8.10615C42.0858 8.37814 42.0462 8.66138 42.0515 8.94555V11.8131H40.9794V6.20761H42.0538V7.07118H42.0759C42.2236 6.75844 42.4712 6.50278 42.7803 6.34385C43.135 6.1537 43.5335 6.05829 43.9366 6.06698C44.2015 6.06568 44.4649 6.10724 44.7163 6.19003C44.9635 6.26839 45.1904 6.39967 45.3809 6.57458C45.5747 6.76005 45.7259 6.98493 45.8239 7.23379C45.9409 7.54109 45.9973 7.86783 45.99 8.19625L45.9834 11.8131Z" fill="white"/>
</svg>
