<svg width="28" height="32" viewBox="0 0 28 32" fill="none" xmlns="http://www.w3.org/2000/svg">
<path d="M10.4959 31.51C10.4959 31.51 10.4659 31.51 10.4559 31.51C7.02593 31.26 3.13593 28.16 1.19593 24.15C-0.534069 20.56 -0.384069 16.96 1.62593 14.02C4.91593 9.2 4.95593 7.89 4.93593 7.68C4.84593 7.55 4.81593 7.39 4.85593 7.23C4.91593 7.01 5.12593 6.86 5.35593 6.86C6.60593 6.86 7.31593 7.65 7.67593 8.51C9.96593 3.8 9.31593 0.67 9.30593 0.63C9.25593 0.42 9.34593 0.21 9.51593 0.09C9.68593 -0.03 9.91593 -0.03 10.0959 0.09C18.2359 5.49 19.9759 9.77 20.3259 11.61C21.4059 10.76 21.8459 9.78 21.8459 9.77C21.9159 9.61 22.0559 9.5 22.2259 9.47C22.3959 9.44 22.5659 9.49 22.6859 9.61C26.0559 12.98 27.5559 16.52 27.1659 20.13C26.4459 26.79 19.5959 31.25 19.2959 31.43C19.1159 31.54 18.8859 31.54 18.7159 31.41C11.6059 26.2 10.8059 20.68 10.8859 18.11C6.31593 23.15 10.8859 30.64 10.9259 30.72C11.0259 30.89 11.0259 31.09 10.9259 31.26C10.8359 31.42 10.6659 31.51 10.4859 31.51H10.4959ZM11.5659 16.25C11.6659 16.25 11.7559 16.28 11.8459 16.33C12.0359 16.45 12.1259 16.67 12.0659 16.89C11.9959 17.18 10.4759 23.9 19.0459 30.36C20.3459 29.44 25.5659 25.43 26.1559 20.01C26.4959 16.89 25.2459 13.8 22.4459 10.82C22.0559 11.41 21.3359 12.29 20.1759 12.96C20.0059 13.06 19.7959 13.05 19.6359 12.95C19.4759 12.85 19.3859 12.66 19.4059 12.47C19.4059 12.43 19.6259 7.93 10.4559 1.56C10.5059 3.15 10.2159 6.25 7.95593 10.23C7.84593 10.43 7.60593 10.53 7.38593 10.48C7.16593 10.43 7.00593 10.23 6.99593 10C6.99593 9.93 6.91593 8.46 5.97593 8.02C5.80593 9.26 4.64593 11.47 2.50593 14.61C0.0859313 18.16 1.24593 21.84 2.14593 23.71C3.71593 26.97 6.76593 29.64 9.56593 30.33C8.33593 27.82 5.68593 20.88 11.2559 16.38C11.3459 16.3 11.4659 16.27 11.5759 16.27L11.5659 16.25Z" fill="#FF0037"/>
</svg>
