<svg width="18" height="15" viewBox="0 0 18 15" fill="none" xmlns="http://www.w3.org/2000/svg">
<path d="M6.9262 15.0002C6.07395 14.999 5.22913 14.8416 4.43368 14.5357C3.02888 13.9924 1.83914 13.0065 1.0443 11.7271C0.249458 10.4477 -0.107265 8.9443 0.028052 7.44419C0.163369 5.94408 0.783368 4.52879 1.79433 3.41227C2.80529 2.29575 4.15225 1.5387 5.63161 1.25556C5.69707 1.23699 5.76699 1.2422 5.82897 1.27028C5.89096 1.29836 5.94099 1.34748 5.97021 1.40893C5.99942 1.47038 6.00593 1.5402 5.98857 1.60599C5.97122 1.67179 5.93112 1.72931 5.87539 1.76835C4.73771 2.63481 3.92574 3.85987 3.57093 5.24522C3.21612 6.63057 3.33924 8.09512 3.92036 9.40179C4.50148 10.7085 5.50659 11.7808 6.77297 12.4451C8.03935 13.1095 9.49288 13.327 10.8983 13.0625C10.9625 13.0489 11.0294 13.0577 11.088 13.0874C11.1465 13.1172 11.1932 13.166 11.2201 13.2259C11.2471 13.2857 11.2528 13.353 11.2364 13.4165C11.2199 13.4801 11.1821 13.5361 11.1294 13.5753C9.92331 14.4998 8.4459 15.0006 6.9262 15.0002ZM4.59971 2.14875C3.40743 2.61775 2.38468 3.43606 1.66553 4.49639C0.946373 5.55672 0.564371 6.8096 0.569597 8.0908C0.574822 9.37199 0.967032 10.6217 1.69481 11.6761C2.42259 12.7306 3.45198 13.5405 4.64805 13.9998C5.47133 14.3189 6.35246 14.4615 7.23438 14.4185C8.1163 14.3754 8.97933 14.1475 9.76759 13.7497H9.71715C8.37471 13.747 7.0619 13.3547 5.93802 12.6205C4.81414 11.8863 3.92751 10.8417 3.3857 9.61346C2.84389 8.3852 2.67019 7.0261 2.88569 5.70106C3.10118 4.37602 3.69661 3.14201 4.59971 2.14875Z" fill="#9C9C9C"/>
<path d="M11.3037 3.75844C11.2638 3.75721 11.2245 3.74782 11.1884 3.73083C11.1522 3.71384 11.12 3.68962 11.0935 3.65966L10.3622 2.81901L9.28405 2.50797C9.23474 2.49342 9.19022 2.46592 9.15513 2.42834C9.12004 2.39077 9.09565 2.34448 9.08449 2.29429C9.07334 2.24409 9.07583 2.19183 9.09171 2.14293C9.10758 2.09402 9.13626 2.05026 9.17477 2.01619L10.0154 1.28273L10.3265 0.217207C10.3393 0.166476 10.3656 0.120157 10.4026 0.0831581C10.4396 0.0461594 10.4859 0.0198592 10.5366 0.00704454C10.5869 -0.00441665 10.6393 -0.00185448 10.6883 0.0144517C10.7372 0.0307578 10.7807 0.060182 10.814 0.0995158L11.5475 0.940164L12.6214 1.25541C12.671 1.27 12.7158 1.29768 12.751 1.33554C12.7862 1.37339 12.8106 1.42003 12.8215 1.47055C12.8325 1.52108 12.8296 1.57362 12.8133 1.62266C12.7969 1.67171 12.7677 1.71545 12.7286 1.74929L11.888 2.48065L11.5769 3.55038C11.5631 3.59947 11.5362 3.64393 11.4993 3.67907C11.4623 3.7142 11.4165 3.73872 11.3668 3.75003C11.3463 3.75601 11.325 3.75885 11.3037 3.75844ZM9.95027 2.10866L10.5955 2.29571C10.6482 2.31102 10.6955 2.34089 10.7321 2.38187L11.1734 2.88837L11.3626 2.24317C11.3775 2.1903 11.4075 2.14287 11.4487 2.10656L11.9552 1.66522L11.31 1.47818C11.2571 1.46207 11.2098 1.4315 11.1734 1.38991L10.7321 0.88342L10.5429 1.52862C10.5282 1.58159 10.4982 1.62908 10.4568 1.66522L9.95027 2.10866Z" fill="#9C9C9C"/>
<path d="M15.2046 11.9443C15.153 11.9445 15.1023 11.9308 15.0579 11.9045C15.0135 11.8782 14.977 11.8404 14.9524 11.7951L14.1411 10.3051L12.67 9.49383C12.6249 9.46897 12.5872 9.43245 12.561 9.3881C12.5348 9.34374 12.521 9.29316 12.521 9.24163C12.521 9.19011 12.5348 9.13953 12.561 9.09517C12.5872 9.05081 12.6249 9.0143 12.67 8.98944L14.1411 8.17821L14.9524 6.70708C14.977 6.66176 15.0135 6.62396 15.0579 6.59769C15.1023 6.57142 15.153 6.55766 15.2046 6.55786C15.2561 6.55766 15.3068 6.57142 15.3512 6.59769C15.3956 6.62396 15.4321 6.66176 15.4568 6.70708L16.268 8.18872L17.7391 8.99995C17.7842 9.0248 17.8219 9.06132 17.8481 9.10568C17.8743 9.15004 17.8881 9.20062 17.8881 9.25214C17.8881 9.30366 17.8743 9.35424 17.8481 9.3986C17.8219 9.44296 17.7842 9.47948 17.7391 9.50433L16.268 10.3156L15.4568 11.7972C15.4318 11.8421 15.3952 11.8795 15.3509 11.9054C15.3065 11.9313 15.2559 11.9447 15.2046 11.9443ZM13.3972 9.25424L14.4921 9.849C14.5408 9.87489 14.5809 9.9143 14.6077 9.96249L15.2067 11.0574L15.8056 9.96249C15.831 9.91399 15.8706 9.8744 15.9191 9.849L17.0141 9.25424L15.9191 8.65528C15.8711 8.62926 15.8316 8.58983 15.8056 8.54179L15.2067 7.44685L14.6077 8.54179C14.5803 8.58949 14.5403 8.62874 14.4921 8.65528L13.3972 9.25424Z" fill="#9C9C9C"/>
<path d="M7.65118 9.56731C7.58831 9.56642 7.5273 9.54584 7.47675 9.50846C7.43599 9.47714 7.40436 9.43548 7.38514 9.38781C7.36592 9.34013 7.35982 9.28818 7.36746 9.23735L7.56712 7.92174L7.0249 6.707C7.00403 6.6596 6.99633 6.60744 7.00262 6.55603C7.00891 6.50462 7.02895 6.45586 7.06063 6.41488C7.09223 6.37474 7.13415 6.34395 7.18191 6.32581C7.22966 6.30767 7.28145 6.30286 7.33174 6.3119L8.64735 6.52206L9.86839 5.96513C9.91514 5.94346 9.96696 5.93514 10.0181 5.94107C10.0693 5.947 10.1179 5.96697 10.1584 5.99876C10.1996 6.02984 10.2316 6.07139 10.2512 6.11908C10.2708 6.16677 10.2772 6.21884 10.2698 6.26987L10.0596 7.58548L10.5998 8.80022C10.6206 8.84727 10.6284 8.89904 10.6224 8.95014C10.6164 9.00125 10.5969 9.04982 10.5658 9.0908C10.5347 9.13178 10.4931 9.16367 10.4455 9.18316C10.3979 9.20265 10.3459 9.20903 10.295 9.20163L8.97941 8.99147L7.76677 9.54209C7.73038 9.55835 7.69103 9.56693 7.65118 9.56731ZM7.76677 6.95289L8.12825 7.76412C8.15037 7.81426 8.15837 7.86949 8.15137 7.92384L8.01686 8.80232L8.81758 8.44084C8.86789 8.41933 8.92314 8.41206 8.9773 8.41982L9.85578 8.55433L9.50271 7.741C9.48098 7.69075 9.4737 7.63544 9.48169 7.58128L9.6162 6.7028L8.80287 7.06428C8.75306 7.08752 8.6975 7.09556 8.64315 7.0874L7.76677 6.95289Z" fill="#9C9C9C"/>
</svg>
