<svg width="15" height="15" viewBox="0 0 15 15" fill="none" xmlns="http://www.w3.org/2000/svg">
<path d="M7.49992 11.1944C6.76927 11.1944 6.05502 10.9778 5.4475 10.5718C4.83999 10.1659 4.36648 9.58894 4.08687 8.9139C3.80726 8.23886 3.73411 7.49607 3.87665 6.77945C4.01919 6.06284 4.37104 5.40458 4.88769 4.88793C5.40434 4.37128 6.06259 4.01944 6.77921 3.87689C7.49583 3.73435 8.23862 3.80751 8.91366 4.08712C9.58869 4.36673 10.1657 4.84023 10.5716 5.44775C10.9775 6.05527 11.1942 6.76951 11.1942 7.50017C11.193 8.47959 10.8034 9.41857 10.1109 10.1111C9.41832 10.8037 8.47935 11.1933 7.49992 11.1944ZM7.49992 4.37863C6.88254 4.37863 6.27902 4.5617 5.76569 4.9047C5.25236 5.2477 4.85226 5.73522 4.616 6.30561C4.37974 6.87599 4.31792 7.50363 4.43836 8.10915C4.55881 8.71467 4.85611 9.27087 5.29266 9.70743C5.72922 10.144 6.28542 10.4413 6.89094 10.5617C7.49646 10.6822 8.1241 10.6204 8.69448 10.3841C9.26487 10.1478 9.75239 9.74774 10.0954 9.2344C10.4384 8.72107 10.6215 8.11755 10.6215 7.50017C10.622 7.08977 10.5417 6.68328 10.3851 6.30393C10.2286 5.92458 9.99875 5.57981 9.70886 5.28931C9.41897 4.99881 9.07468 4.76828 8.69566 4.6109C8.31664 4.45351 7.91032 4.37236 7.49992 4.37207V4.37863Z" fill="#9C9C9C"/>
<path d="M7.49998 15.0001C7.46238 15.0001 7.42514 14.9927 7.3904 14.9783C7.35565 14.964 7.32409 14.9429 7.2975 14.9163C7.2709 14.8897 7.24981 14.8581 7.23542 14.8234C7.22103 14.7886 7.21362 14.7514 7.21362 14.7138V12.7202C7.21362 12.6442 7.24379 12.5714 7.2975 12.5177C7.3512 12.464 7.42404 12.4338 7.49998 12.4338C7.57593 12.4338 7.64877 12.464 7.70247 12.5177C7.75617 12.5714 7.78634 12.6442 7.78634 12.7202V14.7138C7.78634 14.7514 7.77894 14.7886 7.76454 14.8234C7.75015 14.8581 7.72906 14.8897 7.70247 14.9163C7.67588 14.9429 7.64431 14.964 7.60957 14.9783C7.57482 14.9927 7.53759 15.0001 7.49998 15.0001Z" fill="#9C9C9C"/>
<path d="M7.49998 2.56849C7.42384 2.56792 7.351 2.53726 7.29736 2.48321C7.24372 2.42916 7.21362 2.3561 7.21362 2.27995V0.28636C7.21362 0.210412 7.24379 0.137576 7.2975 0.0838728C7.3512 0.0301699 7.42404 0 7.49998 0C7.57593 0 7.64877 0.0301699 7.70247 0.0838728C7.75617 0.137576 7.78634 0.210412 7.78634 0.28636V2.27995C7.78663 2.31774 7.77944 2.35521 7.76518 2.3902C7.75091 2.4252 7.72987 2.45703 7.70325 2.48385C7.67663 2.51067 7.64496 2.53196 7.61008 2.54649C7.57519 2.56101 7.53777 2.56849 7.49998 2.56849Z" fill="#9C9C9C"/>
<path d="M11.1067 14.0337C11.0561 14.0338 11.0064 14.0205 10.9627 13.9952C10.9189 13.9698 10.8826 13.9333 10.8575 13.8894L9.86071 12.1625C9.82274 12.0964 9.81258 12.018 9.83246 11.9444C9.85234 11.8708 9.90064 11.8081 9.96673 11.7701C10.0328 11.7322 10.1113 11.722 10.1849 11.7419C10.2585 11.7618 10.3211 11.8101 10.3591 11.8762L11.3668 13.6031C11.4044 13.6693 11.4144 13.7477 11.3948 13.8212C11.3751 13.8948 11.3274 13.9578 11.2619 13.9965C11.2142 14.022 11.1608 14.0348 11.1067 14.0337Z" fill="#9C9C9C"/>
<path d="M4.88969 3.27888C4.83949 3.27859 4.79024 3.26511 4.74688 3.23979C4.70353 3.21447 4.66759 3.17819 4.64268 3.1346L3.64589 1.4077C3.62678 1.3752 3.61433 1.33922 3.60927 1.30186C3.6042 1.26449 3.60662 1.2265 3.61639 1.19008C3.62615 1.15366 3.64307 1.11955 3.66615 1.08974C3.68922 1.05992 3.71801 1.035 3.75081 1.01642C3.78317 0.995405 3.81943 0.981147 3.85743 0.974499C3.89543 0.967851 3.93438 0.968949 3.97194 0.977728C4.00951 0.986507 4.04491 1.00278 4.07603 1.02559C4.10715 1.04839 4.13334 1.07724 4.15303 1.11041L5.13889 2.84169C5.16529 2.8856 5.17952 2.93576 5.18011 2.987C5.1807 3.03824 5.16764 3.08871 5.14227 3.13322C5.11689 3.17774 5.08012 3.2147 5.03573 3.2403C4.99134 3.2659 4.94093 3.27921 4.88969 3.27888Z" fill="#9C9C9C"/>
<path d="M13.7473 11.3932C13.6968 11.3936 13.6471 11.3808 13.603 11.3561L11.8761 10.3593C11.8408 10.3418 11.8094 10.3172 11.784 10.287C11.7585 10.2569 11.7395 10.2219 11.7281 10.1841C11.7167 10.1463 11.7132 10.1066 11.7178 10.0674C11.7223 10.0282 11.7349 9.99037 11.7547 9.95623C11.7744 9.92208 11.801 9.89236 11.8327 9.86888C11.8644 9.84541 11.9006 9.82869 11.939 9.81975C11.9775 9.81082 12.0173 9.80986 12.0561 9.81694C12.0949 9.82401 12.1319 9.83897 12.1647 9.8609L13.8916 10.8577C13.9469 10.889 13.9902 10.9378 14.0147 10.9964C14.0392 11.055 14.0436 11.1201 14.0271 11.1814C14.0105 11.2427 13.9741 11.2968 13.9234 11.3352C13.8728 11.3735 13.8108 11.394 13.7473 11.3932Z" fill="#9C9C9C"/>
<path d="M2.97952 5.17851C2.92949 5.17834 2.88043 5.16475 2.83743 5.13917L1.11053 4.1533C1.04444 4.11533 0.996141 4.05265 0.976259 3.97907C0.956376 3.90548 0.96654 3.82701 1.00451 3.76092C1.04249 3.69483 1.10516 3.64653 1.17875 3.62665C1.25233 3.60677 1.3308 3.61693 1.39689 3.6549L3.12379 4.65388C3.17908 4.68517 3.22239 4.73396 3.24691 4.79256C3.27144 4.85116 3.27578 4.91625 3.25925 4.97759C3.24273 5.03893 3.20628 5.09303 3.15564 5.13138C3.105 5.16973 3.04304 5.19016 2.97952 5.18944V5.17851Z" fill="#9C9C9C"/>
<path d="M14.7135 7.78634H12.72C12.644 7.78634 12.5712 7.75617 12.5175 7.70247C12.4638 7.64877 12.4336 7.57593 12.4336 7.49998C12.4336 7.42404 12.4638 7.3512 12.5175 7.2975C12.5712 7.24379 12.644 7.21362 12.72 7.21362H14.7135C14.7895 7.21362 14.8623 7.24379 14.916 7.2975C14.9697 7.3512 14.9999 7.42404 14.9999 7.49998C14.9999 7.57593 14.9697 7.64877 14.916 7.70247C14.8623 7.75617 14.7895 7.78634 14.7135 7.78634Z" fill="#9C9C9C"/>
<path d="M2.28213 7.78634H0.28636C0.210412 7.78634 0.137576 7.75617 0.0838728 7.70247C0.0301699 7.64877 0 7.57593 0 7.49998C0 7.42404 0.0301699 7.3512 0.0838728 7.2975C0.137576 7.24379 0.210412 7.21362 0.28636 7.21362H2.28213C2.35808 7.21362 2.43092 7.24379 2.48462 7.2975C2.53832 7.3512 2.56849 7.42404 2.56849 7.49998C2.56849 7.57593 2.53832 7.64877 2.48462 7.70247C2.43092 7.75617 2.35808 7.78634 2.28213 7.78634Z" fill="#9C9C9C"/>
<path d="M12.0229 5.17856C11.9714 5.17794 11.9209 5.16365 11.8768 5.13714C11.8326 5.11064 11.7963 5.07288 11.7715 5.02772C11.7341 4.9618 11.7241 4.88379 11.7437 4.81057C11.7634 4.73735 11.811 4.6748 11.8764 4.63644L13.6033 3.63746C13.6372 3.61851 13.6745 3.60642 13.713 3.60188C13.7515 3.59734 13.7906 3.60044 13.828 3.61099C13.8653 3.62155 13.9002 3.63936 13.9307 3.6634C13.9611 3.68745 13.9866 3.71726 14.0055 3.75113C14.0245 3.785 14.0366 3.82228 14.0411 3.86082C14.0456 3.89937 14.0425 3.93843 14.032 3.97578C14.0214 4.01313 14.0036 4.04803 13.9796 4.0785C13.9555 4.10897 13.9257 4.1344 13.8919 4.15334L12.165 5.15014C12.1207 5.17136 12.0719 5.18113 12.0229 5.17856Z" fill="#9C9C9C"/>
<path d="M1.25266 11.3933C1.20262 11.3935 1.15343 11.3804 1.11006 11.3555C1.06668 11.3305 1.03067 11.2946 1.00565 11.2512C0.986489 11.2186 0.974002 11.1824 0.968909 11.1449C0.963817 11.1073 0.966219 11.0692 0.975978 11.0326C0.985736 10.996 1.00266 10.9617 1.02576 10.9317C1.04886 10.9017 1.07769 10.8765 1.11057 10.8578L2.84185 9.86096C2.90794 9.82299 2.98641 9.81282 3.05999 9.8327C3.13358 9.85259 3.19625 9.90089 3.23422 9.96698C3.2722 10.0331 3.28236 10.1115 3.26248 10.1851C3.2426 10.2587 3.1943 10.3214 3.12821 10.3594L1.39693 11.3671C1.35196 11.3883 1.30222 11.3973 1.25266 11.3933Z" fill="#9C9C9C"/>
<path d="M10.11 3.27903C10.0593 3.27862 10.0096 3.26506 9.96568 3.23968C9.93243 3.22068 9.9033 3.19525 9.87998 3.16487C9.85666 3.1345 9.83962 3.09978 9.82985 3.06275C9.82009 3.02572 9.81779 2.98712 9.8231 2.94919C9.8284 2.91126 9.8412 2.87477 9.86076 2.84184L10.8576 1.11494C10.8949 1.0474 10.9576 0.997478 11.0318 0.976161C11.106 0.954844 11.1857 0.963876 11.2532 1.00127C11.3207 1.03866 11.3707 1.10136 11.392 1.17556C11.4133 1.24976 11.4043 1.32939 11.3669 1.39693L10.3701 3.12383C10.3452 3.17111 10.3077 3.2106 10.2618 3.23798C10.2159 3.26536 10.1634 3.27957 10.11 3.27903Z" fill="#9C9C9C"/>
<path d="M3.89304 14.0337C3.84333 14.0333 3.7945 14.0205 3.75095 13.9966C3.71807 13.9778 3.68924 13.9526 3.66614 13.9226C3.64304 13.8926 3.62612 13.8583 3.61636 13.8217C3.6066 13.7851 3.6042 13.747 3.60929 13.7094C3.61438 13.6719 3.62687 13.6358 3.64603 13.6031L4.64282 11.8762C4.66162 11.8436 4.68666 11.815 4.7165 11.7921C4.74634 11.7692 4.7804 11.7524 4.81673 11.7427C4.85307 11.7329 4.89097 11.7305 4.92826 11.7354C4.96556 11.7403 5.00153 11.7525 5.03411 11.7713C5.06669 11.7901 5.09525 11.8151 5.11815 11.8449C5.14106 11.8748 5.15786 11.9088 5.16761 11.9452C5.17735 11.9815 5.17984 12.0194 5.17494 12.0567C5.17004 12.094 5.15784 12.13 5.13903 12.1625L4.15317 13.8894C4.12737 13.9352 4.08941 13.9729 4.04349 13.9983C3.99757 14.0238 3.9455 14.0361 3.89304 14.0337Z" fill="#9C9C9C"/>
</svg>
