<svg width="24" height="24" viewBox="0 0 24 24" fill="none" xmlns="http://www.w3.org/2000/svg">
<path d="M23.0038 11.5019C23.0038 13.7769 22.3292 16.0008 21.0652 17.8923C19.8012 19.7839 18.0047 21.2581 15.9028 22.1285C13.801 22.999 11.4882 23.2266 9.25696 22.7826C7.02573 22.3386 4.9763 21.2428 3.36784 19.634C1.75938 18.0251 0.664153 15.9754 0.220668 13.7441C-0.222818 11.5127 0.00536045 9.20001 0.876344 7.09836C1.74733 4.99671 3.22199 3.20056 5.11384 1.93705C7.00569 0.673544 9.22974 -0.000556975 11.5047 3.45298e-07C14.5538 0.00373003 17.4769 1.21682 19.6327 3.37312C21.7884 5.52942 23.0008 8.45281 23.0038 11.5019V11.5019ZM0.896038 11.5019C0.896038 13.6001 1.51823 15.6512 2.68392 17.3958C3.84962 19.1404 5.50647 20.5001 7.44496 21.3031C9.38344 22.106 11.5165 22.3161 13.5744 21.9067C15.6323 21.4974 17.5225 20.487 19.0062 19.0034C20.4898 17.5197 21.5002 15.6294 21.9096 13.5716C22.3189 11.5137 22.1088 9.38062 21.3059 7.44213C20.5029 5.50365 19.1432 3.8468 17.3986 2.6811C15.654 1.5154 13.6029 0.893215 11.5047 0.893215C8.69204 0.896199 5.99541 2.01485 4.00655 4.00372C2.01768 5.99259 0.899021 8.68922 0.896038 11.5019V11.5019Z" fill="#FF0037"/>
<path d="M15.6356 11.5019C15.6353 11.5783 15.6154 11.6534 15.5779 11.72C15.5405 11.7865 15.4866 11.8424 15.4214 11.8823L9.7409 15.3509C9.69074 15.3863 9.63386 15.411 9.57376 15.4235C9.51367 15.4359 9.45166 15.4359 9.39156 15.4234C9.33147 15.411 9.27459 15.3863 9.22443 15.3509C9.17428 15.3155 9.13193 15.2702 9.10002 15.2178C9.0681 15.1654 9.04729 15.1069 9.03889 15.0461C9.03048 14.9853 9.03466 14.9235 9.05116 14.8644C9.06766 14.8052 9.09613 14.7501 9.1348 14.7025C9.17347 14.6548 9.22153 14.6156 9.27598 14.5873L14.331 11.4878L9.27598 8.38834C9.22153 8.36003 9.17347 8.32082 9.1348 8.27317C9.09613 8.22551 9.06766 8.17041 9.05116 8.1113C9.03466 8.05218 9.03048 7.99031 9.03889 7.92951C9.04729 7.86872 9.0681 7.8103 9.10002 7.75787C9.13193 7.70545 9.17428 7.66015 9.22443 7.62477C9.27459 7.58939 9.33147 7.56469 9.39156 7.55221C9.45166 7.53973 9.51367 7.53973 9.57376 7.5522C9.63386 7.56468 9.69074 7.58937 9.7409 7.62474L15.4214 11.1187C15.487 11.1588 15.5411 11.2152 15.5786 11.2823C15.6161 11.3494 15.6357 11.425 15.6356 11.5019Z" fill="#FF0037"/>
</svg>
