<svg width="13" height="24" viewBox="0 0 13 24" fill="none" xmlns="http://www.w3.org/2000/svg">
<path d="M5.9682 10.9623C6.59283 10.8846 7.04113 10.786 7.31011 10.6665C7.79128 10.4632 8.03336 10.1435 8.03336 9.71309C8.03336 9.18709 7.84806 8.82248 7.47747 8.62224C7.10688 8.422 6.56294 8.32039 5.84567 8.32039C5.04173 8.32039 4.47089 8.51764 4.13617 8.90915C3.89707 9.19905 3.73868 9.59355 3.65798 10.0867H0.418292C0.490019 8.96294 0.803827 8.03945 1.36569 7.3162C2.25631 6.18649 3.78948 5.61865 5.95924 5.61865C7.37287 5.61865 8.62511 5.8966 9.72493 6.45547C10.8218 7.01435 11.3717 8.06635 11.3717 9.61447V15.5081C11.3717 15.9175 11.3806 16.4106 11.3956 16.9934C11.4195 17.4328 11.4852 17.7316 11.5958 17.89C11.7064 18.0484 11.8708 18.1769 12.0919 18.2785V18.7776H8.43384C8.33222 18.5176 8.26049 18.2756 8.22164 18.0454C8.18279 17.8153 8.14991 17.5583 8.12601 17.2684C7.65978 17.7705 7.12182 18.1979 6.51513 18.5535C5.78889 18.9689 4.96701 19.1781 4.04949 19.1781C2.87795 19.1781 1.91261 18.8464 1.15051 18.1829C0.388405 17.5194 0.00585938 16.578 0.00585938 15.3586C0.00585938 13.7776 0.618532 12.636 1.84686 11.9277C2.51931 11.5421 3.50855 11.2672 4.81459 11.1028L5.9682 10.9623ZM8.0214 12.5284C7.80622 12.6629 7.58805 12.7705 7.36988 12.8542C7.15171 12.9378 6.84985 13.0126 6.46731 13.0843L5.70221 13.2248C4.98494 13.3503 4.47089 13.5027 4.15709 13.685C3.6281 13.9928 3.36509 14.468 3.36509 15.1106C3.36509 15.6844 3.52648 16.0998 3.84926 16.3539C4.17203 16.6109 4.56653 16.7364 5.02678 16.7364C5.76199 16.7364 6.43742 16.5242 7.05607 16.0998C7.67472 15.6754 7.9945 14.9014 8.0214 13.7776V12.5284Z" fill="#F80032"/>
<path d="M12.101 0H0V3.30245H12.101V0Z" fill="#F80032"/>
<path d="M12.1162 20.6975H0.0151367V24H12.1162V20.6975Z" fill="#F80032"/>
</svg>
