<svg width="21" height="24" viewBox="0 0 21 24" fill="none" xmlns="http://www.w3.org/2000/svg">
<path d="M3.33365 9.84201L17.8091 7.32456L18.5785 1.8253C18.7184 0.817734 18.0277 0 17.0339 0H3.66589C2.6721 0 1.75117 0.817734 1.61129 1.8253L0.00549434 13.3729C-0.0411349 13.697 0.215326 13.9424 0.535901 13.8869L2.40107 13.5598L2.85279 10.3385C2.88776 10.0961 3.08885 9.88582 3.33365 9.84201Z" fill="#492775"/>
<path d="M19.6935 7.02568L17.812 7.35296L17.3504 10.5643C17.3153 10.8185 17.1049 11.0348 16.8508 11.0786L2.36524 13.5916L1.77215 17.8344C1.68742 18.4335 1.90947 18.9916 2.36232 19.3159L8.49778 23.7195C9.02075 24.0935 9.757 24.0935 10.3822 23.7195L17.7535 19.3159C18.297 18.9916 18.6768 18.4335 18.7586 17.8344L20.2048 7.52244C20.2515 7.20685 20.0061 6.97016 19.6935 7.02568ZM9.81836 21.0429C9.04412 21.0429 8.41889 20.4146 8.41889 19.6432C8.41889 18.8718 9.04704 18.2435 9.81836 18.2435C10.5897 18.2435 11.2178 18.8718 11.2178 19.6432C11.2178 20.4146 10.5926 21.0429 9.81836 21.0429Z" fill="#6C4F9A"/>
<path d="M17.3632 10.5834L17.8246 7.36841L3.32042 9.89006C3.07805 9.93101 2.87364 10.1416 2.8386 10.3874L2.38599 13.614L16.8639 11.0982C17.115 11.0543 17.3252 10.8379 17.3632 10.5834Z" fill="#F9BA11"/>
</svg>
