<svg width="39" height="20" viewBox="0 0 39 20" fill="none" xmlns="http://www.w3.org/2000/svg">
<path d="M33.514 10.1319H27.3252V8.47981C27.3252 6.99411 26.1316 5.86564 24.6218 5.86564H22.1305V3.32048C22.1305 2.5411 22.2595 2.46803 23.3949 2.46803C24.0645 2.46803 24.6593 1.91597 24.6593 1.23402C24.6593 0.576415 24.1269 0.0324741 23.4573 0C23.4573 0 21.9725 0 20.862 0C19.9969 0 19.5976 0.714431 19.5976 1.23402V5.86158H16.9982C15.2472 5.86158 14.3239 7.19302 14.3239 8.47575V10.1279H8.23085C5.87264 10.1279 3.90539 11.711 3.34807 13.8421H2.52873V12.6081C2.52873 11.9261 1.96309 11.3741 1.26436 11.3741C0.565636 11.3741 0 11.9261 0 12.6081V17.5441C0 18.2261 0.565636 18.7782 1.26436 18.7782C1.96309 18.7782 2.52873 18.2261 2.52873 17.5441V16.3101H3.35639C3.92618 18.4291 5.88096 20 8.23085 20H33.514C36.3089 20 38.5714 17.7918 38.5714 15.0639C38.5714 12.3361 36.3047 10.1319 33.514 10.1319Z" fill="#0033FF"/>
</svg>
