<svg width="25" height="25" viewBox="0 0 25 25" fill="none" xmlns="http://www.w3.org/2000/svg">
<g clip-path="url(#clip0_230_1169)">
<path d="M25 0H0V25H25V0Z" fill="#E0E1EF"/>
<path d="M6.90903 11.3235C7.37824 11.2647 7.71365 11.1911 7.91597 11.1022C8.27801 10.949 8.45902 10.7099 8.45902 10.3863C8.45902 9.99113 8.32037 9.71891 8.04236 9.56821C7.76458 9.41798 7.35648 9.34275 6.81921 9.34275C6.21551 9.34275 5.78819 9.4902 5.53727 9.78488C5.35787 10.0027 5.23819 10.2976 5.17847 10.6694H2.74699C2.80023 9.82631 3.03704 9.13326 3.45741 8.5909C4.12639 7.74275 5.27523 7.31775 6.90324 7.31775C7.96319 7.31775 8.90416 7.52724 9.72731 7.94576C10.5505 8.36451 10.9616 9.15409 10.9616 10.3154V14.7367C10.9616 15.043 10.9676 15.4145 10.9792 15.8506C10.997 16.1812 11.047 16.4048 11.1294 16.5226C11.2118 16.6414 11.3359 16.7377 11.5009 16.8147V17.186H8.75972C8.6831 16.9918 8.63009 16.809 8.60069 16.6379C8.57106 16.4664 8.54722 16.2726 8.52986 16.0546C8.18009 16.4314 7.77685 16.7527 7.32037 17.0182C6.775 17.3305 6.15833 17.4865 5.47037 17.4865C4.59259 17.4865 3.86805 17.2381 3.29583 16.7397C2.72361 16.2411 2.4375 15.5353 2.4375 14.6217C2.4375 13.4365 2.89769 12.5786 3.81852 12.0481C4.32315 11.7594 5.06551 11.5532 6.04537 11.4293L6.90926 11.3235H6.90903ZM8.45046 12.4992C8.28889 12.5997 8.12592 12.6809 7.96157 12.7427C7.79722 12.8046 7.57176 12.862 7.28495 12.9147L6.71134 13.0212C6.17384 13.1157 5.7875 13.2303 5.55278 13.3657C5.15602 13.5962 4.95764 13.9522 4.95764 14.4358C4.95764 14.8661 5.0787 15.1779 5.32129 15.3689C5.56366 15.5606 5.85833 15.6562 6.20555 15.6562C6.75625 15.6562 7.26365 15.4971 7.72708 15.1789C8.19097 14.8599 8.43194 14.2798 8.45023 13.4365V12.4992H8.45046Z" fill="#F80032"/>
<path d="M11.5098 3.09973H2.43091V5.5782H11.5098V3.09973Z" fill="#F80032"/>
<path d="M11.5228 19.3777H2.44385V21.8562H11.5228V19.3777Z" fill="#F80032"/>
<path d="M21.4609 8.67561C20.71 7.77028 19.6757 7.3175 18.3588 7.3175C17.6692 7.3175 17.0537 7.44991 16.5123 7.71473C15.9704 7.97977 15.512 8.34297 15.1366 8.80477C14.7609 9.26681 14.472 9.80593 14.2688 10.4219C14.0657 11.0381 13.9644 11.6969 13.9644 12.399C13.9644 13.1011 14.0502 13.7571 14.2227 14.3668C14.3949 14.9768 14.6595 15.5066 15.0167 15.9562C15.3734 16.4057 15.8292 16.7599 16.3831 17.0187C16.9368 17.2775 17.5954 17.4069 18.3588 17.4069C18.9618 17.4069 19.4912 17.3265 19.9465 17.1666C20.4019 17.0064 20.7958 16.7814 21.1282 16.492C21.4607 16.2029 21.7377 15.8638 21.9593 15.4758C22.1808 15.0876 22.359 14.6659 22.4947 14.2099H21.2576C21.085 14.9122 20.7405 15.4543 20.2236 15.836C19.7067 16.218 19.0847 16.4089 18.3588 16.4089C17.8294 16.4089 17.3616 16.3073 16.9556 16.1038C16.5491 15.9008 16.2137 15.6298 15.9491 15.2911C15.6843 14.9522 15.4843 14.5518 15.3491 14.09C15.2132 13.6279 15.1461 13.1383 15.1461 12.6207H22.5685C22.5808 10.8962 22.2114 9.58116 21.4607 8.67561H21.4609ZM15.1461 11.6969C15.1951 11.2411 15.2998 10.8099 15.46 10.4034C15.6197 9.9969 15.8319 9.63973 16.0968 9.33163C16.3613 9.02376 16.6815 8.77723 17.0572 8.59251C17.4324 8.40778 17.8662 8.31542 18.3588 8.31542C18.8514 8.31542 19.2882 8.405 19.6697 8.58325C20.0512 8.76195 20.3683 9.00223 20.6206 9.30385C20.8729 9.60593 21.0639 9.96311 21.1933 10.3756C21.3225 10.7883 21.3868 11.2288 21.3868 11.6967H15.1461V11.6969Z" fill="#3B0026"/>
</g>
<defs>
<clipPath id="clip0_230_1169">
<rect width="25" height="25" fill="white"/>
</clipPath>
</defs>
</svg>
